# xmcd
#
# Track frame offsets: 
#        150
#        18637
#        31158
#        48581
#        63892
#        75165
#        87720
#        108125
#        130737
#        149593
#        164542
#
# Disc length: 2492 seconds
#
# Revision: 0
# Processed by: cddbd v1.5.2PL0 Copyright (c) Steve Scherf et al.
# Submitted via: ExactAudioCopy v1.0b1
#
DISCID=8c09ba0b
DTITLE=John Holk and The Sequins - If You See Her
DYEAR=2010
DGENRE=
TTITLE0=No Other Way
TTITLE1=If You See Her
TTITLE2=Lady Jane
TTITLE3=Sea Shells
TTITLE4=Carry the Load
TTITLE5=Autograph
TTITLE6=If She Were You
TTITLE7=Cold White Water
TTITLE8=That Was Now
TTITLE9=It's Not True
TTITLE10=The Mountain
EXTD=
EXTT0=
EXTT1=
EXTT2=
EXTT3=
EXTT4=
EXTT5=
EXTT6=
EXTT7=
EXTT8=
EXTT9=
EXTT10=
PLAYORDER=
